<mxfile host="app.diagrams.net" modified="2024-04-10T11:38:08.284Z" agent="Mozilla/5.0 (Windows NT 10.0; Win64; x64) AppleWebKit/537.36 (KHTML, like Gecko) Chrome/123.0.0.0 Safari/537.36" version="24.2.3" etag="kmU82D_Hx6-T4WJzqwME" type="github">
  <diagram name="Page-1" id="0C4mSIA_78GCv4EaUoBL">
    <mxGraphModel>
      <root>
        <mxCell id="0" />
        <mxCell id="1" parent="0" />
      </root>
    </mxGraphModel>
  </diagram>
</mxfile>
